<?xml version="1.0" standalone="no"?>
<!DOCTYPE svg PUBLIC "-//W3C//DTD SVG 20010904//EN"
 "http://www.w3.org/TR/2001/REC-SVG-20010904/DTD/svg10.dtd">
<svg version="1.0" xmlns="http://www.w3.org/2000/svg"
 width="109.000000pt" height="87.000000pt" viewBox="0 0 109.000000 87.000000"
 preserveAspectRatio="xMidYMid meet">
<metadata>
Created by potrace 1.10, written by Peter Selinger 2001-2011
</metadata>
<g transform="translate(0.000000,87.000000) scale(0.050000,-0.050000)"
fill="#000000" stroke="none">
<path d="M1262 1699 c-48 -10 -120 -36 -160 -59 -294 -166 -309 -170 -632
-174 -165 -1 -309 -4 -320 -5 -43 -6 176 -103 294 -131 266 -63 460 -29 686
119 202 133 401 148 605 45 128 -64 147 -44 49 52 -132 128 -339 189 -522 153z"/>
<path d="M1300 1178 c-49 -10 -130 -40 -180 -68 -301 -167 -485 -209 -776
-176 -256 28 -227 -23 63 -112 277 -85 525 -51 750 104 192 132 386 146 597
43 129 -63 155 -52 75 33 -80 83 -202 152 -299 168 -44 8 -93 16 -110 19 -16
4 -70 -2 -120 -11z"/>
<path d="M1690 640 c-68 -45 -130 -147 -130 -215 0 -278 390 -366 508 -115
108 226 -169 468 -378 330z"/>
<path d="M1220 571 c-38 -14 -101 -44 -140 -67 -177 -103 -412 -128 -710 -74
-88 16 -162 29 -165 30 -29 2 14 -43 92 -96 305 -208 726 -177 948 70 19 22
80 60 135 86 55 26 100 54 100 63 0 26 -181 17 -260 -12z"/>
</g>
</svg>
